{
  "accessors": [
    {
      "bufferView": 2,
      "componentType": 5126,
      "count": 6465,
      "max": [
        1.5347603559494019,
        1.239524245262146,
        0.9999991059303284
      ],
      "min": [
        -1.5454764366149902,
        -0.7913123369216919,
        -0.9999996423721313
      ],
      "type": "VEC3"
    },
    {
      "bufferView": 2,
      "byteOffset": 77580,
      "componentType": 5126,
      "count": 6465,
      "type": "VEC3"
    },
    {
      "bufferView": 1,
      "componentType": 5126,
      "count": 6465,
      "type": "VEC2"
    },
    {
      "bufferView": 0,
      "componentType": 5125,
      "count": 18486,
      "type": "SCALAR"
    },
    {
      "bufferView": 2,
      "byteOffset": 155160,
      "componentType": 5126,
      "count": 1594,
      "max": [
        1.2335387468338013,
        1.2137339115142822,
        0.9731061458587646
      ],
      "min": [
        -1.2335387468338013,
        -0.7880520224571228,
        -0.9744865894317627
      ],
      "type": "VEC3"
    },
    {
      "bufferView": 2,
      "byteOffset": 174288,
      "componentType": 5126,
      "count": 1594,
      "type": "VEC3"
    },
    {
      "bufferView": 1,
      "byteOffset": 51720,
      "componentType": 5126,
      "count": 1594,
      "type": "VEC2"
    },
    {
      "bufferView": 0,
      "byteOffset": 73944,
      "componentType": 5125,
      "count": 4305,
      "type": "SCALAR"
    },
    {
      "bufferView": 2,
      "byteOffset": 193416,
      "componentType": 5126,
      "count": 1707,
      "max": [
        1.5619361400604248,
        0.9187403917312622,
        0.9877550601959229
      ],
      "min": [
        -1.5449029207229614,
        -0.8239204287528992,
        -0.9877554178237915
      ],
      "type": "VEC3"
    },
    {
      "bufferView": 2,
      "byteOffset": 213900,
      "componentType": 5126,
      "count": 1707,
      "type": "VEC3"
    },
    {
      "bufferView": 1,
      "byteOffset": 64472,
      "componentType": 5126,
      "count": 1707,
      "type": "VEC2"
    },
    {
      "bufferView": 0,
      "byteOffset": 91164,
      "componentType": 5125,
      "count": 4815,
      "type": "SCALAR"
    },
    {
      "bufferView": 2,
      "byteOffset": 234384,
      "componentType": 5126,
      "count": 32,
      "max": [
        0.12301300466060638,
        -0.8056729435920715,
        0.12301304191350937
      ],
      "min": [
        -0.12301294505596161,
        -0.8056729435920715,
        -0.12301290780305862
      ],
      "type": "VEC3"
    },
    {
      "bufferView": 2,
      "byteOffset": 234768,
      "componentType": 5126,
      "count": 32,
      "type": "VEC3"
    },
    {
      "bufferView": 1,
      "byteOffset": 78128,
      "componentType": 5126,
      "count": 32,
      "type": "VEC2"
    },
    {
      "bufferView": 0,
      "byteOffset": 110424,
      "componentType": 5125,
      "count": 90,
      "type": "SCALAR"
    },
    {
      "bufferView": 2,
      "byteOffset": 235152,
      "componentType": 5126,
      "count": 1092,
      "max": [
        0.5000001192092896,
        1.2381054162979126,
        0.7270403504371643
      ],
      "min": [
        -0.49999988079071045,
        -0.5536646842956543,
        -0.06415543705224991
      ],
      "type": "VEC3"
    },
    {
      "bufferView": 2,
      "byteOffset": 248256,
      "componentType": 5126,
      "count": 1092,
      "type": "VEC3"
    },
    {
      "bufferView": 1,
      "byteOffset": 78384,
      "componentType": 5126,
      "count": 1092,
      "type": "VEC2"
    },
    {
      "bufferView": 0,
      "byteOffset": 110784,
      "componentType": 5125,
      "count": 4584,
      "type": "SCALAR"
    }
  ],
  "asset": {
    "generator": "fab-model-conversion",
    "version": "2.0"
  },
  "bufferViews": [
    {
      "buffer": 0,
      "byteLength": 129120,
      "target": 34963
    },
    {
      "buffer": 0,
      "byteLength": 87120,
      "byteOffset": 129120,
      "byteStride": 8,
      "target": 34962
    },
    {
      "buffer": 0,
      "byteLength": 261360,
      "byteOffset": 216240,
      "byteStride": 12,
      "target": 34962
    }
  ],
  "buffers": [
    {
      "byteLength": 477600,
      "uri": "scene.bin"
    }
  ],
  "images": [
    {
      "uri": "textures/smart_metal_v2_03_baseColor.png"
    },
    {
      "uri": "textures/smart_metal_v2_03_metallicRoughness.png"
    },
    {
      "uri": "textures/Lights_emissive.png"
    }
  ],
  "materials": [
    {
      "doubleSided": true,
      "name": "smart_metal_v2_03",
      "pbrMetallicRoughness": {
        "baseColorTexture": {
          "index": 0
        },
        "metallicRoughnessTexture": {
          "index": 1
        }
      }
    },
    {
      "doubleSided": true,
      "emissiveFactor": [
        1.0,
        1.0,
        1.0
      ],
      "emissiveTexture": {
        "index": 2
      },
      "name": "Lights",
      "pbrMetallicRoughness": {
        "baseColorTexture": {
          "index": 0
        },
        "metallicRoughnessTexture": {
          "index": 1
        }
      }
    },
    {
      "doubleSided": true,
      "emissiveFactor": [
        1.0,
        1.0,
        1.0
      ],
      "emissiveTexture": {
        "index": 2
      },
      "name": "smart_metal_v2_03.001",
      "pbrMetallicRoughness": {
        "baseColorTexture": {
          "index": 0
        },
        "metallicRoughnessTexture": {
          "index": 1
        }
      }
    },
    {
      "doubleSided": true,
      "name": "plastic_03",
      "pbrMetallicRoughness": {
        "baseColorTexture": {
          "index": 0
        },
        "metallicRoughnessTexture": {
          "index": 1
        }
      }
    },
    {
      "doubleSided": true,
      "name": "pngwing.com",
      "pbrMetallicRoughness": {
        "baseColorTexture": {
          "index": 0
        },
        "metallicRoughnessTexture": {
          "index": 1
        }
      }
    }
  ],
  "meshes": [
    {
      "name": "Sphere.006_smart_metal_v2_03_0",
      "primitives": [
        {
          "attributes": {
            "NORMAL": 1,
            "POSITION": 0,
            "TEXCOORD_0": 2
          },
          "indices": 3,
          "material": 0,
          "mode": 4
        }
      ]
    },
    {
      "name": "Sphere.006_Lights_0",
      "primitives": [
        {
          "attributes": {
            "NORMAL": 5,
            "POSITION": 4,
            "TEXCOORD_0": 6
          },
          "indices": 7,
          "material": 1,
          "mode": 4
        }
      ]
    },
    {
      "name": "Sphere.006_smart_metal_v2_03.001_0",
      "primitives": [
        {
          "attributes": {
            "NORMAL": 9,
            "POSITION": 8,
            "TEXCOORD_0": 10
          },
          "indices": 11,
          "material": 2,
          "mode": 4
        }
      ]
    },
    {
      "name": "Sphere.006_plastic_03_0",
      "primitives": [
        {
          "attributes": {
            "NORMAL": 13,
            "POSITION": 12,
            "TEXCOORD_0": 14
          },
          "indices": 15,
          "material": 3,
          "mode": 4
        }
      ]
    },
    {
      "name": "Sphere.006_pngwing.com_0",
      "primitives": [
        {
          "attributes": {
            "NORMAL": 17,
            "POSITION": 16,
            "TEXCOORD_0": 18
          },
          "indices": 19,
          "material": 4,
          "mode": 4
        }
      ]
    }
  ],
  "nodes": [
    {
      "children": [
        1
      ],
      "matrix": [
        1.0,
        0.0,
        0.0,
        0.0,
        0.0,
        2.220446049250313e-16,
        -1.0,
        0.0,
        0.0,
        1.0,
        2.220446049250313e-16,
        0.0,
        0.0,
        0.0,
        0.0,
        1.0
      ],
      "name": "Sketchfab_model"
    },
    {
      "children": [
        2
      ],
      "matrix": [
        0.009999999776482582,
        0.0,
        0.0,
        0.0,
        0.0,
        0.0,
        0.009999999776482582,
        0.0,
        0.0,
        -0.009999999776482582,
        0.0,
        0.0,
        0.0,
        0.0,
        0.0,
        1.0
      ],
      "name": "9bee6ecc89c543c49f10198e7975972d.fbx"
    },
    {
      "children": [
        3,
        9
      ],
      "name": "RootNode"
    },
    {
      "children": [
        4,
        5,
        6,
        7,
        8
      ],
      "matrix": [
        100.0,
        0.0,
        0.0,
        0.0,
        -0.0,
        -1.629206793918314e-05,
        -99.99999999999868,
        0.0,
        0.0,
        99.99999999999868,
        -1.629206793918314e-05,
        0.0,
        -3.065441205762909e-06,
        548.993408203125,
        1237.4730224609375,
        1.0
      ],
      "name": "Sphere.006"
    },
    {
      "mesh": 0,
      "name": "Sphere.006_smart_metal_v2_03_0"
    },
    {
      "mesh": 1,
      "name": "Sphere.006_Lights_0"
    },
    {
      "mesh": 2,
      "name": "Sphere.006_smart_metal_v2_03.001_0"
    },
    {
      "mesh": 3,
      "name": "Sphere.006_plastic_03_0"
    },
    {
      "mesh": 4,
      "name": "Sphere.006_pngwing.com_0"
    },
    {
      "children": [
        10
      ],
      "matrix": [
        100.0,
        0.0,
        0.0,
        0.0,
        0.0,
        66.39011865691538,
        -74.78202069242212,
        0.0,
        0.0,
        74.78202069242212,
        66.39011865691538,
        0.0,
        -4.016328603029251e-07,
        548.993408203125,
        1318.040283203125,
        1.0
      ],
      "name": "Spot"
    },
    {
      "children": [
        11
      ],
      "matrix": [
        1.0,
        0.0,
        0.0,
        0.0,
        0.0,
        2.220446049250313e-16,
        1.0,
        0.0,
        0.0,
        -1.0,
        2.220446049250313e-16,
        0.0,
        0.0,
        0.0,
        0.0,
        1.0
      ],
      "name": "Object_10"
    },
    {
      "name": "Object_11"
    }
  ],
  "samplers": [
    {
      "magFilter": 9729,
      "minFilter": 9987,
      "wrapS": 10497,
      "wrapT": 10497
    }
  ],
  "scene": 0,
  "scenes": [
    {
      "name": "Sketchfab_Scene",
      "nodes": [
        0
      ]
    }
  ],
  "textures": [
    {
      "sampler": 0,
      "source": 0
    },
    {
      "sampler": 0,
      "source": 1
    },
    {
      "sampler": 0,
      "source": 2
    }
  ]
}
